<svg width="32" height="32" viewBox="0 0 32 32" fill="none" xmlns="http://www.w3.org/2000/svg">
<g clip-path="url(#clip0_67_26)">
<path d="M26 0H6C2.68629 0 0 2.68629 0 6V26C0 29.3137 2.68629 32 6 32H26C29.3137 32 32 29.3137 32 26V6C32 2.68629 29.3137 0 26 0Z" fill="#DB8163"/>
<path d="M15.041 9.67188C15.2038 9.5026 15.3665 9.37565 15.5293 9.29102C15.6921 9.20638 15.8548 9.16406 16.0176 9.16406C16.252 9.16406 16.444 9.23568 16.5938 9.37891C16.7435 9.52214 16.8184 9.69466 16.8184 9.89648C16.8184 10.0267 16.7923 10.2253 16.7402 10.4922L16.3789 12.1914C16.2747 12.6797 16.1055 13.0247 15.8711 13.2266C15.6432 13.4284 15.3861 13.5293 15.0996 13.5293C14.8587 13.5293 14.6699 13.4609 14.5332 13.3242C14.39 13.194 14.3184 13.0052 14.3184 12.7578V12.3672C14.3184 12.0221 14.1458 11.7161 13.8008 11.4492C13.2734 11.0586 12.6159 10.8633 11.8281 10.8633C11.2292 10.8633 10.6497 10.9935 10.0898 11.2539C9.52995 11.5143 8.99609 11.9408 8.48828 12.5332C7.98047 13.1257 7.64193 13.819 7.47266 14.6133L7.19922 15.9121C7.14062 16.1725 7.11133 16.4297 7.11133 16.6836C7.11133 17.4193 7.39453 18.0378 7.96094 18.5391C8.52734 19.0404 9.35091 19.291 10.4316 19.291C11.1673 19.291 11.8118 19.1934 12.3652 18.998C12.6973 18.8809 13.0749 18.6465 13.498 18.2949C13.752 18.0866 13.9408 17.9531 14.0645 17.8945C14.1947 17.8294 14.3346 17.7969 14.4844 17.7969C14.7188 17.7969 14.9141 17.875 15.0703 18.0312C15.2266 18.1875 15.3047 18.3796 15.3047 18.6074C15.3047 19.0762 14.9141 19.584 14.1328 20.1309C13.013 20.9056 11.6198 21.293 9.95312 21.293C8.94401 21.293 8.05534 21.0977 7.28711 20.707C6.51888 20.3164 5.95573 19.8053 5.59766 19.1738C5.24609 18.5423 5.07031 17.8066 5.07031 16.9668C5.07031 16.6608 5.10938 16.3223 5.1875 15.9512L5.48047 14.5938C5.83203 12.9401 6.6556 11.5729 7.95117 10.4922C9.24674 9.40495 10.653 8.86133 12.1699 8.86133C12.7493 8.86133 13.2767 8.92969 13.752 9.06641C14.2337 9.19661 14.6634 9.39844 15.041 9.67188ZM27.0527 9.67188C27.2155 9.5026 27.3783 9.37565 27.541 9.29102C27.7038 9.20638 27.8665 9.16406 28.0293 9.16406C28.2637 9.16406 28.4557 9.23568 28.6055 9.37891C28.7552 9.52214 28.8301 9.69466 28.8301 9.89648C28.8301 10.0267 28.804 10.2253 28.752 10.4922L28.3906 12.1914C28.2865 12.6797 28.1172 13.0247 27.8828 13.2266C27.6549 13.4284 27.3978 13.5293 27.1113 13.5293C26.8704 13.5293 26.6816 13.4609 26.5449 13.3242C26.4017 13.194 26.3301 13.0052 26.3301 12.7578V12.3672C26.3301 12.0221 26.1576 11.7161 25.8125 11.4492C25.2852 11.0586 24.6276 10.8633 23.8398 10.8633C23.2409 10.8633 22.6615 10.9935 22.1016 11.2539C21.5417 11.5143 21.0078 11.9408 20.5 12.5332C19.9922 13.1257 19.6536 13.819 19.4844 14.6133L19.2109 15.9121C19.1523 16.1725 19.123 16.4297 19.123 16.6836C19.123 17.4193 19.4062 18.0378 19.9727 18.5391C20.5391 19.0404 21.3626 19.291 22.4434 19.291C23.179 19.291 23.8236 19.1934 24.377 18.998C24.709 18.8809 25.0866 18.6465 25.5098 18.2949C25.7637 18.0866 25.9525 17.9531 26.0762 17.8945C26.2064 17.8294 26.3464 17.7969 26.4961 17.7969C26.7305 17.7969 26.9258 17.875 27.082 18.0312C27.2383 18.1875 27.3164 18.3796 27.3164 18.6074C27.3164 19.0762 26.9258 19.584 26.1445 20.1309C25.0247 20.9056 23.6315 21.293 21.9648 21.293C20.9557 21.293 20.0671 21.0977 19.2988 20.707C18.5306 20.3164 17.9674 19.8053 17.6094 19.1738C17.2578 18.5423 17.082 17.8066 17.082 16.9668C17.082 16.6608 17.1211 16.3223 17.1992 15.9512L17.4922 14.5938C17.8438 12.9401 18.6673 11.5729 19.9629 10.4922C21.2585 9.40495 22.6647 8.86133 24.1816 8.86133C24.7611 8.86133 25.2884 8.92969 25.7637 9.06641C26.2454 9.19661 26.6751 9.39844 27.0527 9.67188Z" fill="#FAF9F5"/>
</g>
<defs>
<clipPath id="clip0_67_26">
<rect width="32" height="32" fill="white"/>
</clipPath>
</defs>
</svg>
