<svg width="32" height="32" viewBox="0 0 32 32" fill="none" xmlns="http://www.w3.org/2000/svg">
<g clip-path="url(#clip0_70_2)">
<path d="M26 0H6C2.68629 0 0 2.68629 0 6V26C0 29.3137 2.68629 32 6 32H26C29.3137 32 32 29.3137 32 26V6C32 2.68629 29.3137 0 26 0Z" fill="#333333"/>
<path d="M15.041 9.67188C15.2038 9.5026 15.3665 9.37565 15.5293 9.29102C15.6921 9.20638 15.8548 9.16406 16.0176 9.16406C16.252 9.16406 16.444 9.23568 16.5938 9.37891C16.7435 9.52214 16.8184 9.69466 16.8184 9.89648C16.8184 10.0267 16.7923 10.2253 16.7402 10.4922L16.3789 12.1914C16.2747 12.6797 16.1055 13.0247 15.8711 13.2266C15.6432 13.4284 15.3861 13.5293 15.0996 13.5293C14.8587 13.5293 14.6699 13.4609 14.5332 13.3242C14.39 13.194 14.3184 13.0052 14.3184 12.7578V12.3672C14.3184 12.0221 14.1458 11.7161 13.8008 11.4492C13.2734 11.0586 12.6159 10.8633 11.8281 10.8633C11.2292 10.8633 10.6497 10.9935 10.0898 11.2539C9.52995 11.5143 8.99609 11.9408 8.48828 12.5332C7.98047 13.1257 7.64193 13.819 7.47266 14.6133L7.19922 15.9121C7.14062 16.1725 7.11133 16.4297 7.11133 16.6836C7.11133 17.4193 7.39453 18.0378 7.96094 18.5391C8.52734 19.0404 9.35091 19.291 10.4316 19.291C11.1673 19.291 11.8118 19.1934 12.3652 18.998C12.6973 18.8809 13.0749 18.6465 13.498 18.2949C13.752 18.0866 13.9408 17.9531 14.0645 17.8945C14.1947 17.8294 14.3346 17.7969 14.4844 17.7969C14.7188 17.7969 14.9141 17.875 15.0703 18.0312C15.2266 18.1875 15.3047 18.3796 15.3047 18.6074C15.3047 19.0762 14.9141 19.584 14.1328 20.1309C13.013 20.9056 11.6198 21.293 9.95312 21.293C8.94401 21.293 8.05534 21.0977 7.28711 20.707C6.51888 20.3164 5.95573 19.8053 5.59766 19.1738C5.24609 18.5423 5.07031 17.8066 5.07031 16.9668C5.07031 16.6608 5.10938 16.3223 5.1875 15.9512L5.48047 14.5938C5.83203 12.9401 6.6556 11.5729 7.95117 10.4922C9.24674 9.40495 10.653 8.86133 12.1699 8.86133C12.7493 8.86133 13.2767 8.92969 13.752 9.06641C14.2337 9.19661 14.6634 9.39844 15.041 9.67188ZM24.1035 14.9648L26.584 18.998C26.9421 18.998 27.196 19.0697 27.3457 19.2129C27.502 19.3561 27.5801 19.5482 27.5801 19.7891C27.5801 20.1927 27.388 20.528 27.0039 20.7949C26.8021 20.9316 26.4701 21 26.0078 21H23.7617C23.319 21 23.0163 20.9316 22.8535 20.7949C22.6973 20.6517 22.6191 20.4564 22.6191 20.209C22.6191 19.8444 22.7819 19.5319 23.1074 19.2715C23.3092 19.1087 23.6022 19.0176 23.9863 18.998L22.502 16.5176L19.9434 18.998C20.2689 19.0111 20.5033 19.0892 20.6465 19.2324C20.7962 19.3691 20.8711 19.5547 20.8711 19.7891C20.8711 20.1927 20.679 20.528 20.2949 20.7949C20.0931 20.9316 19.7611 21 19.2988 21H17.0527C16.61 21 16.3073 20.9316 16.1445 20.7949C15.9883 20.6517 15.9102 20.4564 15.9102 20.209C15.9102 19.8835 16.0371 19.6003 16.291 19.3594C16.5514 19.1185 16.8997 18.998 17.3359 18.998L21.5156 14.9453L19.1621 11.166C18.8105 11.1595 18.5599 11.0846 18.4102 10.9414C18.2604 10.7982 18.1855 10.6061 18.1855 10.3652C18.1855 9.9681 18.3743 9.63607 18.752 9.36914C18.9603 9.22591 19.2956 9.1543 19.7578 9.1543L21.6133 9.16406C22.056 9.16406 22.3555 9.23242 22.5117 9.36914C22.6745 9.50586 22.7559 9.70117 22.7559 9.95508C22.7559 10.2155 22.6582 10.4661 22.4629 10.707C22.3392 10.8503 22.1016 11.0033 21.75 11.166L23.1465 13.4023L25.4512 11.166C25.2168 11.0293 25.0671 10.9121 25.002 10.8145C24.9173 10.6973 24.875 10.5475 24.875 10.3652C24.875 9.9681 25.0638 9.63607 25.4414 9.36914C25.6497 9.22591 25.985 9.1543 26.4473 9.1543L28.2832 9.16406C28.7324 9.16406 29.0352 9.23242 29.1914 9.36914C29.3542 9.50586 29.4355 9.70117 29.4355 9.95508C29.4355 10.2741 29.3053 10.554 29.0449 10.7949C28.791 11.0358 28.4557 11.1595 28.0391 11.166L24.1035 14.9648Z" fill="#FAF9F5"/>
</g>
<defs>
<clipPath id="clip0_70_2">
<rect width="32" height="32" fill="white"/>
</clipPath>
</defs>
</svg>
